<svg id="Icon_2" data-name="Icon 2" xmlns="http://www.w3.org/2000/svg" width="80" height="80" viewBox="0 0 80 80">
  <rect id="Rectangle_163" data-name="Rectangle 163" width="80" height="80" fill="#4b4b4b" opacity="0"/>
  <g id="noun-world-5683608" transform="translate(-85.224 -14.871)">
    <path id="Path_180" data-name="Path 180" d="M112.98,144.139a1.135,1.135,0,0,1-1.014-1.642c.506-1.01,1.068-2.021,1.672-3h0a1.135,1.135,0,0,1,1.929,1.188c-.568.927-1.1,1.879-1.575,2.83h0a1.135,1.135,0,0,1-1.011.628Z" transform="translate(-22.387 -105.28)" fill="#5ec6ea"/>
    <path id="Path_181" data-name="Path 181" d="M125.163,94.584A39.733,39.733,0,0,1,89.879,73.091a39.21,39.21,0,0,1-4.368-16.179,1.135,1.135,0,1,1,2.266-.114,37.448,37.448,0,0,0,38.967,35.485l.633-.034a37.445,37.445,0,0,0-3.784-74.793c-.6.023-1.2.067-1.789.114A37.409,37.409,0,0,0,98.066,29.031a1.135,1.135,0,1,1-1.642-1.566,39.686,39.686,0,0,1,25.191-12.16c.632-.047,1.258-.094,1.886-.114h0a39.713,39.713,0,0,1,4,79.323l-.652.035c-.558.024-1.123.035-1.685.035Z" fill="#5ec6ea"/>
    <path id="Path_182" data-name="Path 182" d="M89.754,213.174a1.1,1.1,0,0,1-.18-.015,1.134,1.134,0,0,1-.941-1.3,33.57,33.57,0,0,1,.74-3.453,1.135,1.135,0,1,1,2.19.593,31.6,31.6,0,0,0-.69,3.219,1.134,1.134,0,0,1-1.119.955Z" transform="translate(-2.642 -163.535)" fill="#5ec6ea"/>
    <path id="Path_183" data-name="Path 183" d="M220.011,68.522c-2.29,0-4.372-2.108-6.053-6.15h0a5.275,5.275,0,0,1,.322-4.55,2.7,2.7,0,0,0-.712-3.72,5.369,5.369,0,0,1-1.626-2.78c-.034-.144-.071-.263-.108-.382a2.875,2.875,0,0,0-3.219-1.809,13.514,13.514,0,0,1-3.363.184,5.238,5.238,0,0,1-4.341-3.27,13.146,13.146,0,0,1-.387-8.463,10.824,10.824,0,0,1,6.1-6.989,9.407,9.407,0,0,1,9.329,1.177,4.151,4.151,0,0,0,1.487.715,6.87,6.87,0,0,0,4.4-.236,3.85,3.85,0,0,0,2.244-3.679,3.221,3.221,0,0,0-.654-1.815,4.053,4.053,0,0,0-2.864-1.407,4.559,4.559,0,0,1-3.7-1.984l-.133-.245v-.282a5.957,5.957,0,0,1,1.419-3.783l1.793,1.391a4.089,4.089,0,0,0-.925,1.986,3.033,3.033,0,0,0,1.77.659,6.17,6.17,0,0,1,4.448,2.3,5.463,5.463,0,0,1,1.11,3.069,6.137,6.137,0,0,1-3.588,5.866,9.062,9.062,0,0,1-5.833.375,6.367,6.367,0,0,1-2.317-1.1,7.073,7.073,0,0,0-7.111-.915,8.533,8.533,0,0,0-4.794,5.524,10.744,10.744,0,0,0,.317,7.011,2.943,2.943,0,0,0,2.435,1.839,11.219,11.219,0,0,0,2.776-.16,5.163,5.163,0,0,1,5.758,3.338c.064.209.114.38.156.552h0a3.168,3.168,0,0,0,.917,1.608,4.994,4.994,0,0,1,1.207,6.511,2.977,2.977,0,0,0-.22,2.592c1.306,3.139,2.88,4.9,4.164,4.74.488-.152,4.14-1.381,4.264-4.282h0a4.519,4.519,0,0,1,3.866-4.665,1.823,1.823,0,0,0,.865-.725.688.688,0,0,0,0-.52,5.394,5.394,0,0,1,1.536-7.058l3.193-2.981h0a1.025,1.025,0,0,0,.31-.486,2.9,2.9,0,0,0-.842-2.01h-1.19a3.356,3.356,0,0,1-3.233-2.437,4.581,4.581,0,0,0-.826-1.622,3.394,3.394,0,0,1-.472-3.685,3.309,3.309,0,0,1,3.019-1.878c2.61-.074,5.787-.761,6.232-1.631l.127-.245.227-.161c.04-.028,4.012-2.89,5.137-6.369l2.156.7c-1.214,3.752-4.879,6.695-5.787,7.376-1.55,2.3-6.9,2.571-8,2.6h-.117a1.021,1.021,0,0,0-.949.583,1.154,1.154,0,0,0,.16,1.248,6.855,6.855,0,0,1,1.266,2.442,1.1,1.1,0,0,0,1.055.808h1.293a2.628,2.628,0,0,1,2.023,1.248,4.934,4.934,0,0,1,.908,3.6,3.256,3.256,0,0,1-.961,1.573l-3.229,3.015c-2.462,2.083-1.126,4.15-1.067,4.237l.114.227h0a3.006,3.006,0,0,1-.034,2.383,4.158,4.158,0,0,1-2.247,1.944l-.227.056h0a2.294,2.294,0,0,0-2.042,2.442c-.2,4.845-5.751,6.415-5.987,6.48l-.114.024h0a3.861,3.861,0,0,1-.637.049Z" transform="translate(-97.325 -3.311)" fill="#5ec6ea"/>
    <path id="Path_184" data-name="Path 184" d="M359.833,313.375h-2.27c0-5.8,4.866-9.479,5.7-10.07,1.929-1.937,6.971-.991,8.491-.649l.2.06a.992.992,0,0,0,.988-.35,1.171,1.171,0,0,0,.152-1.266,6.64,6.64,0,0,1-.61-2.678,1.1,1.1,0,0,0-.829-1.038l-1.248-.317a2.623,2.623,0,0,1-1.656-1.71,4.926,4.926,0,0,1,.017-3.725,3.15,3.15,0,0,1,1.318-1.285l3.869-2.115c2.9-1.406,2.119-3.737,2.083-3.835l-.057-.246h0a3.008,3.008,0,0,1,.624-2.3,4.152,4.152,0,0,1,2.659-1.328l.12-.01.12.013h0a2.3,2.3,0,0,0,2.588-1.85c1.39-4.652,7.156-4.793,7.4-4.8,3.456.281,5.624,4.681,6.035,7.568l-2.248.32c-.307-2.165-1.936-5.4-3.8-5.616-.507.024-4.352.3-5.187,3.092h0a4.521,4.521,0,0,1-4.907,3.552,1.825,1.825,0,0,0-1.021.49.7.7,0,0,0-.136.51,5.385,5.385,0,0,1-3.234,6.46l-3.832,2.095a.961.961,0,0,0-.4.377,2.848,2.848,0,0,0,.3,2.172l1.153.293a3.36,3.36,0,0,1,2.533,3.161,4.455,4.455,0,0,0,.387,1.768,3.414,3.414,0,0,1-.453,3.7,3.247,3.247,0,0,1-3.385,1.075l-.138-.043c-2.5-.544-5.668-.647-6.3.074l-.227.194c-.033.031-4.791,3.279-4.791,8.257Z" transform="translate(-231.26 -219.924)" fill="#5ec6ea"/>
    <path id="Path_185" data-name="Path 185" d="M125.288,363.376a1.121,1.121,0,0,1-.443-.092,1.134,1.134,0,0,1-.6-1.488l.227-.534a6.049,6.049,0,0,1,7.953-3.139,1.722,1.722,0,0,0,2.413-1.58,1.715,1.715,0,0,0-1.039-1.578,3.3,3.3,0,0,1-1.973-3.029,3.254,3.254,0,0,1,.277-1.318l1.62-3.745a2.448,2.448,0,0,0,.045-1.893,2.489,2.489,0,0,0-4.6-.091,2.807,2.807,0,0,1-3.64,1.442l-2.9-1.264h0a1.774,1.774,0,0,0-2.341.918,8.746,8.746,0,0,1-2.536,3.321,8.013,8.013,0,0,1-2.534,1.393,1.135,1.135,0,1,1-.708-2.156,5.767,5.767,0,0,0,1.816-1.007,6.449,6.449,0,0,0,1.881-2.453,4.047,4.047,0,0,1,5.333-2.092l2.891,1.258h0a.514.514,0,0,0,.666-.271,4.753,4.753,0,1,1,8.714,3.8l-1.62,3.745a1.024,1.024,0,0,0-.088.413,1.045,1.045,0,0,0,.613.947,3.993,3.993,0,0,1-3.182,7.326,3.778,3.778,0,0,0-4.969,1.949l-.227.527h0a1.135,1.135,0,0,1-1.045.691Z" transform="translate(-23.972 -277.05)" fill="#5ec6ea"/>
  </g>
</svg>
