<svg id="Icon_1" data-name="Icon 1" xmlns="http://www.w3.org/2000/svg" width="80" height="80" viewBox="0 0 80 80">
  <rect id="Rectangle_163" data-name="Rectangle 163" width="80" height="80" fill="#4b4b4b" opacity="0"/>
  <g id="Group_1981" data-name="Group 1981">
    <g id="noun-setting-5683642" transform="translate(-71.851 -14.845)">
      <path id="Path_175" data-name="Path 175" d="M129.706,94.56h-9.713a2.29,2.29,0,0,1-2.22-1.8l-1.053-5.251a33.482,33.482,0,0,1-9.21-3.826l-4.454,2.96a2.263,2.263,0,0,1-2.846-.265L93.342,79.5a2.276,2.276,0,0,1-.263-2.879L96.022,72.2h0A33.242,33.242,0,0,1,92.2,62.977l-5.248-1.051A2.294,2.294,0,0,1,85.136,59.7V49.989a2.289,2.289,0,0,1,1.8-2.22l5.26-1.055a33.207,33.207,0,0,1,3.82-9.217L93.055,33.06a2.271,2.271,0,0,1,.265-2.851l6.876-6.876a2.27,2.27,0,0,1,2.879-.266l4.425,2.95h0a33.488,33.488,0,0,1,9.219-3.832l1.048-5.238a2.3,2.3,0,0,1,2.225-1.815h9.713a2.288,2.288,0,0,1,2.22,1.8l1.053,5.25a33.232,33.232,0,0,1,9.225,3.834l4.431-2.967a2.271,2.271,0,0,1,2.852.265l6.876,6.876a2.276,2.276,0,0,1,.266,2.879l-2.95,4.433a33.413,33.413,0,0,1,3.826,9.211l5.232,1.05a2.294,2.294,0,0,1,1.826,2.224V59.7a2.289,2.289,0,0,1-1.8,2.22l-5.25,1.053a33.4,33.4,0,0,1-3.826,9.211l2.96,4.451a2.269,2.269,0,0,1-.265,2.848L149.5,86.364a2.269,2.269,0,0,1-2.879.267l-4.414-2.957a33.245,33.245,0,0,1-9.225,3.834l-1.055,5.237a2.294,2.294,0,0,1-2.224,1.815ZM107.488,81.2a1.118,1.118,0,0,1,.6.172,31.19,31.19,0,0,0,9.855,4.1,1.134,1.134,0,0,1,.862.885l1.188,5.941h9.7l1.2-5.941a1.134,1.134,0,0,1,.862-.885,30.966,30.966,0,0,0,9.853-4.094,1.173,1.173,0,0,1,1.248.015l5.038,3.37,6.862-6.86-3.311-4.967h0a1.072,1.072,0,0,1-.114-.162,1.134,1.134,0,0,1,.03-1.154,31.136,31.136,0,0,0,4.095-9.855,1.134,1.134,0,0,1,.886-.862l5.949-1.192V49.99L156.353,48.8h0a1.134,1.134,0,0,1-.885-.862,31.139,31.139,0,0,0-4.1-9.855,1.136,1.136,0,0,1-.035-1.154,1.037,1.037,0,0,1,.138-.2l3.282-4.933L147.9,24.932l-5.035,3.375a1.173,1.173,0,0,1-1.248.015,30.967,30.967,0,0,0-9.853-4.094,1.134,1.134,0,0,1-.862-.885l-1.2-5.941h-9.712L118.8,23.343a1.134,1.134,0,0,1-.862.885,31.2,31.2,0,0,0-9.855,4.1,1.134,1.134,0,0,1-1.236-.015l-5.049-3.37L94.936,31.8l3.375,5.047h0a1.135,1.135,0,0,1,.016,1.236,30.92,30.92,0,0,0-4.085,9.853,1.135,1.135,0,0,1-.955.877L87.4,49.99V59.7l5.922,1.187a1.144,1.144,0,0,1,.915.87,30.986,30.986,0,0,0,4.085,9.853,1.133,1.133,0,0,1-.015,1.234l-3.358,5.048L101.8,84.76l4.964-3.311h0a1.127,1.127,0,0,1,.165-.114,1.143,1.143,0,0,1,.557-.139Z" transform="translate(-12.999 0)" fill="#5ec6ea"/>
      <path id="Path_176" data-name="Path 176" d="M470.181,192.533a1.134,1.134,0,0,1-1.029-.654A20.738,20.738,0,0,0,467.5,189a1.135,1.135,0,0,1,1.875-1.28,23.184,23.184,0,0,1,1.838,3.2,1.134,1.134,0,0,1-1.027,1.616Z" transform="translate(-337.859 -146.287)" fill="#5ec6ea"/>
      <path id="Path_177" data-name="Path 177" d="M215.1,168.891a23.795,23.795,0,0,1,0-47.589,18.71,18.71,0,0,1,1.87.085,1.135,1.135,0,1,1-.227,2.258c-.507-.05-1.046-.074-1.648-.074A21.53,21.53,0,1,0,236.627,145.1a19.176,19.176,0,0,0-.181-2.731,1.135,1.135,0,1,1,2.246-.325,21.579,21.579,0,0,1,.2,3.056A23.785,23.785,0,0,1,215.1,168.892Z" transform="translate(-103.252 -90.251)" fill="#5ec6ea"/>
      <path id="Path_178" data-name="Path 178" d="M414.746,141.649a1.128,1.128,0,0,1-.673-.227,18.225,18.225,0,0,0-2.724-1.644,1.135,1.135,0,0,1,1.006-2.035,20.433,20.433,0,0,1,3.063,1.852,1.135,1.135,0,0,1-.675,2.042Z" transform="translate(-289.768 -104.13)" fill="#5ec6ea"/>
      <path id="Path_179" data-name="Path 179" d="M275.157,238.608a1.135,1.135,0,0,1-1.04-.681l-3.65-8.335-8.335-3.65h0a1.135,1.135,0,0,1,.042-2.091l20.651-8.088h0a1.135,1.135,0,0,1,1.475,1.475l-8.09,20.648a1.134,1.134,0,0,1-1.033.722Zm-9.607-13.646,6.235,2.73a1.139,1.139,0,0,1,.585.585l2.729,6.239,6.144-15.693Z" transform="translate(-162.883 -170.479)" fill="#5ec6ea"/>
    </g>
  </g>
</svg>
