<svg id="Icon_3" data-name="Icon 3" xmlns="http://www.w3.org/2000/svg" width="80" height="80" viewBox="0 0 80 80">
  <rect id="Rectangle_163" data-name="Rectangle 163" width="80" height="80" fill="#4b4b4b" opacity="0"/>
  <g id="noun-map-5683629" transform="translate(-84.845 -41.33)">
    <path id="Path_186" data-name="Path 186" d="M429.3,46.317a1.134,1.134,0,0,0-1.134,1.134v64.258a1.134,1.134,0,0,0,.981,1.124l25.706,3.5a1.134,1.134,0,0,0,1.288-1.124v-32.8a1.134,1.134,0,0,0-2.268,0v31.505l-23.437-3.194V48.751l23.437,3.194v11.3a1.134,1.134,0,0,0,2.268,0V50.955a1.133,1.133,0,0,0-.981-1.124l-25.706-3.5a1.106,1.106,0,0,0-.152-.011Z" transform="translate(-291.638 0)" fill="#5ec6ea"/>
    <path id="Path_187" data-name="Path 187" d="M600.868,318.218a1.134,1.134,0,0,0-1.134,1.134v3.288a1.134,1.134,0,1,0,2.268,0v-3.288a1.134,1.134,0,0,0-1.134-1.134Z" transform="translate(-437.495 -248.168)" fill="#5ec6ea"/>
    <path id="Path_188" data-name="Path 188" d="M283.5,46.319a1.1,1.1,0,0,0-.152.011l-25.7,3.5a1.134,1.134,0,0,0-.979,1.124v64.255a1.133,1.133,0,0,0,.388.853,1.116,1.116,0,0,0,.9.27l25.7-3.5a1.135,1.135,0,0,0,.981-1.124V47.453a1.136,1.136,0,0,0-1.135-1.134ZM258.93,51.948l23.433-3.2v61.966l-23.433,3.2Z" transform="translate(-145.828 -0.001)" fill="#5ec6ea"/>
    <path id="Path_189" data-name="Path 189" d="M86.27,46.318a1.134,1.134,0,0,0-1.134,1.134v64.255a1.133,1.133,0,0,0,.98,1.124l25.7,3.5a1.119,1.119,0,0,0,.9-.27,1.133,1.133,0,0,0,.389-.853V50.957a1.134,1.134,0,0,0-.981-1.124l-25.7-3.5a1.114,1.114,0,0,0-.153-.01Zm1.134,64.4V48.751l23.435,3.2v61.966Z" transform="translate(-0.005 0)" fill="#5ec6ea"/>
    <path id="Path_190" data-name="Path 190" d="M429.293,200.458a1.134,1.134,0,0,0-.2,2.251l6.463,1.145a1.134,1.134,0,1,0,.4-2.234l-6.463-1.145h0A1.138,1.138,0,0,0,429.293,200.458Z" transform="translate(-291.629 -110.621)" fill="#5ec6ea"/>
    <path id="Path_191" data-name="Path 191" d="M546.68,177.839a1.134,1.134,0,0,0-.2,2.251l8.119,1.429a1.134,1.134,0,1,0,.392-2.234l-8.118-1.429A1.185,1.185,0,0,0,546.68,177.839Z" transform="translate(-391.427 -84.895)" fill="#5ec6ea"/>
    <path id="Path_192" data-name="Path 192" d="M283.5,177.834a1.183,1.183,0,0,0-.2.017l-25.7,4.536h0a1.134,1.134,0,1,0,.394,2.233l25.7-4.536h0a1.134,1.134,0,0,0-.2-2.251Z" transform="translate(-145.825 -87.997)" fill="#5ec6ea"/>
    <path id="Path_193" data-name="Path 193" d="M86.266,177.834a1.134,1.134,0,0,0-.2,2.25l25.7,4.536h0a1.134,1.134,0,1,0,.394-2.234l-25.7-4.536a1.191,1.191,0,0,0-.2-.017Z" transform="translate(0 -87.997)" fill="#5ec6ea"/>
    <path id="Path_194" data-name="Path 194" d="M429.326,329.18a1.134,1.134,0,0,0-.2,2.25l25.7,4.536h0a1.134,1.134,0,0,0,.394-2.234l-25.7-4.536a1.166,1.166,0,0,0-.2-.017Z" transform="translate(-291.656 -262.021)" fill="#5ec6ea"/>
    <path id="Path_195" data-name="Path 195" d="M283.5,329.181a1.143,1.143,0,0,0-.2.017l-25.7,4.535h0a1.134,1.134,0,1,0,.394,2.234l25.7-4.536h0a1.134,1.134,0,0,0-.2-2.251Z" transform="translate(-145.825 -262.022)" fill="#5ec6ea"/>
    <path id="Path_196" data-name="Path 196" d="M86.266,350.673a1.134,1.134,0,0,0-.2,2.25l7.45,1.315h0A1.134,1.134,0,0,0,93.914,352l-7.45-1.314A1.114,1.114,0,0,0,86.266,350.673Z" transform="translate(0 -283.514)" fill="#5ec6ea"/>
    <path id="Path_197" data-name="Path 197" d="M206.963,329.186a1.134,1.134,0,0,0-.2,2.251l7.62,1.349h0a1.135,1.135,0,0,0,.4-2.234l-7.619-1.349a1.167,1.167,0,0,0-.2-.017Z" transform="translate(-102.612 -258.841)" fill="#5ec6ea"/>
    <path id="Path_198" data-name="Path 198" d="M510.054,234.594a1.135,1.135,0,0,0-1.135,1.134V244.8a1.135,1.135,0,0,0,2.269,0v-9.071a1.136,1.136,0,0,0-1.134-1.134Z" transform="translate(-360.288 -157.797)" fill="#5ec6ea"/>
    <path id="Path_199" data-name="Path 199" d="M477.888,158.918a6.809,6.809,0,1,0,4.808,1.995A6.8,6.8,0,0,0,477.888,158.918Zm0,11.339a4.537,4.537,0,1,1,3.207-1.329A4.535,4.535,0,0,1,477.888,170.257Z" transform="translate(-328.122 -73.05)" fill="#5ec6ea"/>
    <path id="Path_200" data-name="Path 200" d="M169.517,371a1.134,1.134,0,0,0-1.134,1.133v9.072a1.134,1.134,0,1,0,2.268,0v-9.072A1.135,1.135,0,0,0,169.517,371Z" transform="translate(-70.778 -314.647)" fill="#5ec6ea"/>
    <path id="Path_201" data-name="Path 201" d="M137.347,295.328a6.812,6.812,0,1,0,4.808,2A6.8,6.8,0,0,0,137.347,295.328Zm0,11.339a4.534,4.534,0,1,1,3.208-1.328,4.536,4.536,0,0,1-3.208,1.328Z" transform="translate(-38.608 -229.899)" fill="#5ec6ea"/>
  </g>
</svg>
