<svg id="Logo" xmlns="http://www.w3.org/2000/svg" width="161.841" height="60" viewBox="0 0 161.841 60">
  <g id="Layer_1-2">
    <path id="Path_139" data-name="Path 139" d="M213.73,19.582,190.7,19.15l20.23,6.069L198.636,36.435,210.86,32.2l6.031-9.829Z" transform="translate(-87.823 -8.819)" fill="#38bde3"/>
    <path id="Path_140" data-name="Path 140" d="M222.52,44.653,237.6,35.59l-12.09,4.181Z" transform="translate(-102.477 -16.39)" fill="#b1c3ca"/>
    <path id="Path_141" data-name="Path 141" d="M210.76,0l12.208,10.762,13.422.254Z" transform="translate(-97.061)" fill="#b1c3ca"/>
    <path id="Path_142" data-name="Path 142" d="M230.94,19.95l3.161,2.789-6.031,9.829,12.09-4.181,4.2-8.184Z" transform="translate(-105.033 -9.188)" fill="#fff"/>
    <path id="Path_143" data-name="Path 143" d="M2.028,80.077V61.53H0V82.111H11.6V80.077Z" transform="translate(0 -28.336)" fill="#fff"/>
    <path id="Path_144" data-name="Path 144" d="M36.2,75.544c0,4.774-1.759,9.139-7.245,9.139s-7.245-4.364-7.245-9.139S23.469,66.4,28.955,66.4,36.2,70.77,36.2,75.544m-12.462,0c0,4.774,1.591,7.52,5.217,7.52s5.217-2.741,5.217-7.52-1.6-7.515-5.217-7.515-5.217,2.741-5.217,7.515" transform="translate(-9.998 -30.579)" fill="#fff"/>
    <path id="Path_145" data-name="Path 145" d="M66.842,67.6a3.991,3.991,0,0,0-2.811.815,5.337,5.337,0,0,1,1.252,3.69c0,4.332-3.08,6.161-6.8,6.161a8.107,8.107,0,0,1-2.843-.539c-1.117.4-1.629,1.047-1.629,1.694,0,1.014.68,1.527,5.454,1.527,5.281,0,7.482,1.689,7.482,4.569,0,2.573-1.958,4.774-8.027,4.774s-7.687-2.066-7.687-4.165c0-1.527.61-2.811,3.08-3.728v-.065c-1.284-.27-2.336-.815-2.336-2.3a3.312,3.312,0,0,1,2.643-2.978,5.591,5.591,0,0,1-2.541-4.607c0-3.857,2.708-6.333,6.97-6.333a7.086,7.086,0,0,1,4.1,1.219,5.146,5.146,0,0,1,3.69-1.559V67.6ZM53.264,85.752c0,1.726,1.694,2.913,5.352,2.913,4.4,0,6.3-1.192,6.3-3.016,0-1.457-1.149-2.881-6.436-2.881-4,0-5.217,1.457-5.217,2.978m5.416-9.112c2.843,0,4.575-1.354,4.575-4.4s-1.732-4.5-4.575-4.5a4.214,4.214,0,0,0-4.569,4.5c0,3.048,2.1,4.4,4.569,4.4" transform="translate(-23.593 -30.289)" fill="#fff"/>
    <path id="Path_146" data-name="Path 146" d="M85.58,61.53h2.028v2.293H85.58Zm2.028,20.581H85.58V65.587h2.028Z" transform="translate(-39.412 -28.336)" fill="#fff"/>
    <path id="Path_147" data-name="Path 147" d="M170.606,75.544c0,4.774-1.764,9.139-7.251,9.139s-7.245-4.364-7.245-9.139,1.759-9.144,7.245-9.144,7.25,4.37,7.25,9.144m-12.462,0c0,4.774,1.591,7.52,5.217,7.52s5.211-2.741,5.211-7.52-1.591-7.515-5.211-7.515-5.217,2.741-5.217,7.515" transform="translate(-71.893 -30.579)" fill="#fff"/>
    <path id="Path_148" data-name="Path 148" d="M200.146,67.025V84.639h-2.034V81.855c-1.894,1.969-3.453,3.118-6.026,3.118-3.658,0-5.217-2.1-5.217-5.929V67.025H188.9V78.84c0,2.913.885,4.5,3.6,4.5,2.163,0,3.382-1.322,5.616-3.356V67.02h2.034Z" transform="translate(-86.059 -30.865)" fill="#fff"/>
    <path id="Path_149" data-name="Path 149" d="M218.705,84.358V66.744h2.028V70.1h.065a5.7,5.7,0,0,1,5.076-3.69h.912v1.964h-.912c-2.233,0-5.147,2.643-5.147,6.031v9.959H218.7Z" transform="translate(-100.718 -30.584)" fill="#fff"/>
    <path id="Path_150" data-name="Path 150" d="M274.907,80.56c-1.392,1.926-2.492,2.509-4.44,2.509-4,0-5.659-3.453-5.659-7.45h12.262c0-5.454-2.271-9.209-7.04-9.209-4.472,0-7.25,3.69-7.25,9.144,0,6.2,2.913,9.144,7.515,9.144,3.291,0,5.012-1.149,6.867-4.132h-2.255ZM269.96,68.034c3.075.038,4.672,2.331,5.076,5.956H264.8c.038-2.336,1.559-5.994,5.152-5.956" transform="translate(-121.018 -30.584)" fill="#fff"/>
    <path id="Path_151" data-name="Path 151" d="M133.1,69.4c-2.719-.761-5.287-1.478-5.287-3.9s1.635-3.895,4.381-3.895a6.647,6.647,0,0,1,5.524,3.091l1.548-1.079c-1.559-2.428-3.787-3.561-7-3.561s-6.5,1.462-6.5,5.562c0,3.792,3.323,4.683,6.533,5.546,2.886.777,5.88,1.575,5.88,4.639,0,2.4-2.109,4.213-4.9,4.213a6.782,6.782,0,0,1-5.681-2.384h-2.3a9.188,9.188,0,0,0,7.817,3.933c3.534,0,7.11-1.98,7.11-5.762,0-4.424-3.792-5.476-7.137-6.4" transform="translate(-57.704 -27.659)" fill="#fff"/>
    <path id="Path_152" data-name="Path 152" d="M102.135,83.064c-3.523,0-5.557-3.016-5.557-7.52,0-5.454,2.233-7.515,5.557-7.515,2.136,0,3.42,1.359,4.327,3.145h2.109c-1.052-2.913-3.118-4.774-6.436-4.774-4.537,0-7.585,3.08-7.585,9.144,0,5.319,2.643,9.144,7.585,9.144,3.188,0,5.2-1.807,6.673-4.132h-2.179a5.239,5.239,0,0,1-4.494,2.509" transform="translate(-43.543 -30.579)" fill="#fff"/>
    <path id="Path_153" data-name="Path 153" d="M241.8,83.064c-3.523,0-5.557-3.016-5.557-7.52,0-5.454,2.233-7.515,5.557-7.515,2.136,0,3.415,1.359,4.321,3.145h2.115c-1.052-2.913-3.118-4.774-6.436-4.774-4.537,0-7.585,3.08-7.585,9.144,0,5.319,2.643,9.144,7.585,9.144,3.183,0,5.2-1.807,6.673-4.132H246.3a5.252,5.252,0,0,1-4.494,2.509" transform="translate(-107.865 -30.579)" fill="#fff"/>
    <path id="Path_154" data-name="Path 154" d="M296.832,94.817a1.856,1.856,0,1,1-1.85-1.807A1.815,1.815,0,0,1,296.832,94.817Zm-3.248,0a1.4,1.4,0,0,0,1.408,1.44,1.367,1.367,0,0,0,1.376-1.43,1.393,1.393,0,1,0-2.784-.011Zm1.111.944h-.421V93.954a3.736,3.736,0,0,1,.7-.054,1.133,1.133,0,0,1,.626.129.5.5,0,0,1,.173.394.47.47,0,0,1-.372.421v.022a.527.527,0,0,1,.329.442,1.457,1.457,0,0,0,.129.453H295.4a1.554,1.554,0,0,1-.14-.442c-.032-.2-.14-.286-.372-.286h-.2v.728Zm.011-1.025h.2c.232,0,.421-.076.421-.264,0-.167-.119-.275-.383-.275a1.04,1.04,0,0,0-.232.022v.518Z" transform="translate(-134.99 -42.834)" fill="#fff"/>
  </g>
</svg>
